# xmcd CD database file
#
# Track frame offsets:
#	182
#	14290
#	28975
#	45505
#	58967
#	72832
#	87270
#	101412
#	116925
#	129582
#	144482
#	157907
#	171470
#	185295
#	201000
#	213325
#	228340
#	242800
#	256622
#	270265
#	282002
#
# Disc length: 3921 seconds
#
# Revision: 0
# Processed by: cddbd v1.5.2PL0 Copyright (c) Steve Scherf et al.
# Submitted via: CDex 1.51
#
DISCID=260f4f15
DTITLE=Duke Ellington - Duke Ellington's Jungle Style
DYEAR=1930
DGENRE=Jazz
TTITLE0=Black and tan fantasy
TTITLE1=Creole love call
TTITLE2=East St-Louis Toodle-Oo
TTITLE3=Got everything but you
TTITLE4=Move over
TTITLE5=The mooche
TTITLE6=Saturday night funtion
TTITLE7=Mississippi moan
TTITLE8=Arabian lover
TTITLE9=Haunted nights
TTITLE10=Jungle nights in Harlem
TTITLE11=Shout'em Aunt Tillie
TTITLE12=Old man blues
TTITLE13=Echoes of the jungle
TTITLE14=Baby when you ain't there
TTITLE15=Saddest tale
TTITLE16=Clarinet lament
TTITLE17=Echoes of Harlem
TTITLE18=The new east St-Louis Toodle-Oo
TTITLE19=Prologue to a black and tan fantasy
TTITLE20=The new black and tan fantasy
EXTD=YEAR: 1930
EXTT0=
EXTT1=
EXTT2=
EXTT3=
EXTT4=
EXTT5=
EXTT6=
EXTT7=
EXTT8=
EXTT9=
EXTT10=
EXTT11=
EXTT12=
EXTT13=
EXTT14=
EXTT15=
EXTT16=
EXTT17=
EXTT18=
EXTT19=
EXTT20=
PLAYORDER=
